<svg width="1920" height="1080" viewBox="0 0 1920 1080" xmlns="http://www.w3.org/2000/svg"><rect width="1920" height="1080" fill="#1e3ac8"/><path d="M 0,1080 C 0,1080 0,216 0,216 C 80.72051282051282,214.17948717948718 161.44102564102565,212.35897435897436 270,212 C 378.55897435897435,211.64102564102564 514.9564102564102,212.74358974358975 618,202 C 721.0435897435898,191.25641025641025 790.7333333333333,168.66666666666666 907,160 C 1023.2666666666667,151.33333333333334 1186.1102564102566,156.5897435897436 1313,159 C 1439.8897435897434,161.4102564102564 1530.8256410256408,160.97435897435898 1626,170 C 1721.1743589743592,179.02564102564102 1820.5871794871796,197.5128205128205 1920,216 C 1920,216 1920,1080 1920,1080 Z" fill="#a855f7" opacity="0.12"/><path d="M 0,1080 C 0,1080 0,432 0,432 C 81.35384615384615,416.9076923076923 162.7076923076923,401.81538461538463 261,410 C 359.2923076923077,418.18461538461537 474.5230769230769,449.6461538461538 582,443 C 689.4769230769231,436.3538461538462 789.1999999999998,391.6 901,369 C 1012.8000000000002,346.4 1136.676923076923,345.95384615384614 1250,358 C 1363.323076923077,370.04615384615386 1466.0923076923077,394.58461538461535 1576,409 C 1685.9076923076923,423.41538461538465 1802.9538461538461,427.70769230769235 1920,432 C 1920,432 1920,1080 1920,1080 Z" fill="#a855f7" opacity="0.24"/><path d="M 0,1080 C 0,1080 0,648 0,648 C 119.87692307692308,685.8564102564103 239.75384615384615,723.7128205128205 359,701 C 478.24615384615385,678.2871794871795 596.8615384615384,595.0051282051282 691,592 C 785.1384615384616,588.9948717948718 854.8000000000001,666.2666666666667 936,689 C 1017.1999999999999,711.7333333333333 1109.9384615384615,679.928205128205 1222,648 C 1334.0615384615385,616.071794871795 1465.446153846154,584.0205128205129 1585,584 C 1704.553846153846,583.9794871794871 1812.2769230769231,615.9897435897435 1920,648 C 1920,648 1920,1080 1920,1080 Z" fill="#a855f7" opacity="0.36"/><path d="M 0,1080 C 0,1080 0,864 0,864 C 113.51025641025643,828.5564102564102 227.02051282051286,793.1128205128205 344,802 C 460.97948717948714,810.8871794871795 581.428205128205,864.1051282051283 699,854 C 816.571794871795,843.8948717948717 931.2666666666667,770.4666666666668 1015,789 C 1098.7333333333333,807.5333333333332 1151.505128205128,918.028205128205 1236,919 C 1320.494871794872,919.971794871795 1436.7128205128206,811.4205128205128 1556,784 C 1675.2871794871794,756.5794871794872 1797.6435897435897,810.2897435897436 1920,864 C 1920,864 1920,1080 1920,1080 Z" fill="#a855f7" opacity="0.48"/></svg>